<svg width="8" height="8" viewBox="0 0 8 8" fill="none" xmlns="http://www.w3.org/2000/svg">
<g id="phone">
<path id="Icon" d="M6.88778 6.25697C6.88778 6.25697 6.50155 6.63631 6.40691 6.74752C6.25272 6.91206 6.07106 6.98975 5.83292 6.98975C5.81002 6.98975 5.7856 6.98975 5.7627 6.98823C5.30931 6.95928 4.88797 6.78256 4.57198 6.63174C3.70794 6.21432 2.94924 5.6217 2.31876 4.87064C1.7982 4.2445 1.45015 3.66559 1.21964 3.04402C1.07767 2.66469 1.02576 2.36914 1.04866 2.09035C1.06393 1.9121 1.13262 1.76433 1.25933 1.63788L1.77989 1.11839C1.85469 1.04831 1.93407 1.01022 2.01192 1.01022C2.1081 1.01022 2.18595 1.06811 2.2348 1.11686C2.23633 1.11839 2.23786 1.11991 2.23938 1.12144C2.3325 1.20827 2.42104 1.29815 2.51416 1.39413C2.56149 1.44288 2.61034 1.49163 2.65919 1.54191L3.07594 1.95781C3.23776 2.11929 3.23776 2.26859 3.07594 2.43008C3.03167 2.47426 2.98893 2.51844 2.94466 2.56109C2.81642 2.69211 2.91716 2.59158 2.78435 2.71041C2.78129 2.71346 2.77824 2.71498 2.77671 2.71803C2.64543 2.84904 2.66985 2.97701 2.69733 3.06385C2.69886 3.06842 2.70039 3.07299 2.70191 3.07756C2.8103 3.33959 2.96295 3.58639 3.19499 3.88042L3.19652 3.88194C3.61785 4.39991 4.06208 4.80362 4.55211 5.11288C4.6147 5.15249 4.67881 5.18449 4.73988 5.21496C4.79483 5.24238 4.84674 5.26828 4.89101 5.2957C4.89711 5.29875 4.90322 5.30332 4.90933 5.30636C4.96123 5.33226 5.01008 5.34445 5.06046 5.34445C5.18716 5.34445 5.26654 5.26523 5.29249 5.23933L5.59172 4.94072C5.64362 4.88892 5.72606 4.82646 5.82223 4.82646C5.91688 4.82646 5.99473 4.88587 6.04206 4.93767C6.04358 4.93919 6.04358 4.93919 6.04511 4.94072L6.88625 5.78014C7.04349 5.93553 6.88778 6.25697 6.88778 6.25697Z" stroke="white" stroke-width="0.5" stroke-linecap="round" stroke-linejoin="round"/>
</g>
</svg>
