<svg width="12" height="12" viewBox="0 0 12 12" fill="none" xmlns="http://www.w3.org/2000/svg">
<g id="map-02">
<path id="Icon" d="M1.61457 2.83333L9.21484 10.2533M1.61457 2.83333C1.89735 2.5105 2.31971 2.30556 2.79158 2.30556H5.36089M1.61457 2.83333C1.38714 3.09298 1.25 3.42888 1.25 3.79575V9.2598C1.25 10.0828 1.94019 10.75 2.79158 10.75H8.44405C9.29544 10.75 9.98563 10.0828 9.98563 9.2598V7.02451M5.36089 7.02451L2.02079 10.2533M9.00287 2.93889V2.90714M10.75 2.90217C10.75 4.00362 9.00287 5.47222 9.00287 5.47222C9.00287 5.47222 7.25575 4.00362 7.25575 2.90217C7.25575 1.9897 8.03796 1.25 9.00287 1.25C9.96778 1.25 10.75 1.9897 10.75 2.90217Z" stroke="white" stroke-linecap="round" stroke-linejoin="round"/>
</g>
</svg>
