<svg width="13" height="12" viewBox="0 0 13 12" fill="none" xmlns="http://www.w3.org/2000/svg">
<g id="map-02">
<path id="Icon" d="M2.11457 2.83333L9.71484 10.2533M2.11457 2.83333C2.39735 2.5105 2.81971 2.30556 3.29158 2.30556H5.86089M2.11457 2.83333C1.88714 3.09298 1.75 3.42888 1.75 3.79575V9.2598C1.75 10.0828 2.44019 10.75 3.29158 10.75H8.94405C9.79544 10.75 10.4856 10.0828 10.4856 9.2598V7.02451M5.86089 7.02451L2.52079 10.2533M9.50287 2.93889V2.90714M11.25 2.90217C11.25 4.00362 9.50287 5.47222 9.50287 5.47222C9.50287 5.47222 7.75575 4.00362 7.75575 2.90217C7.75575 1.9897 8.53796 1.25 9.50287 1.25C10.4678 1.25 11.25 1.9897 11.25 2.90217Z" stroke="#154B34" stroke-linecap="round" stroke-linejoin="round"/>
</g>
</svg>
